<svg xmlns="http://www.w3.org/2000/svg" width="27" height="25" viewBox="0 0 27 25"><g><g><path fill="#a1b1bc" d="M21.938 15h-3.375v-3.332h3.375zm0 6.667h-3.375v-3.334h3.375zM15.188 15h-3.375v-3.332h3.375zm0 6.667h-3.375v-3.334h3.375zM8.438 15H5.062v-3.332h3.375zm0 6.667H5.062v-3.334h3.375zM21.435 8.334l-4.689-6.03c.082-.196.128-.411.128-.637 0-.92-.755-1.666-1.687-1.666-.933 0-1.688.745-1.688 1.666a1.678 1.678 0 0 0 1.908 1.652l3.9 5.015H7.692l3.9-5.015A1.678 1.678 0 0 0 13.5 1.667c0-.92-.755-1.666-1.687-1.666s-1.688.745-1.688 1.666c0 .226.046.441.128.637l-4.69 6.03H0v3.334h1.687L3.375 25h20.25l1.687-13.332H27V8.334z"/></g></g></svg>