<svg xmlns="http://www.w3.org/2000/svg" width="30" height="30" viewBox="0 0 30 30"><g><g><path fill="#a1b1bc" d="M16.127 16.143c-2.696 2.829-7.177 2.89-9.99.136-2.812-2.753-2.907-7.296-.212-10.125 2.694-2.83 7.175-2.892 9.988-.137 2.813 2.753 2.909 7.297.214 10.126zm12.8 9.654l-9.532-8.336c3.053-4.171 2.635-10.133-1.177-13.863-4.14-4.054-10.733-3.963-14.7.2C-.447 7.962-.305 14.646 3.834 18.7c3.732 3.655 9.462 3.938 13.46.905l8.58 9.398a.658.658 0 0 0 .975.016l2.127-2.234a.68.68 0 0 0-.049-.988z"/></g></g></svg>